# xmcd CD database file
#
# Track frame offsets:
#	150
#	22384
#	44628
#	72072
#	90978
#	118750
#	137608
#	170579
#	195786
#	213529
#	239561
#	258373
#	276547
#
# Disc length: 3900 seconds
#
# Revision: 0
# Processed by: cddbd v1.5.1PL2 Copyright (c) Steve Scherf et al.
# Submitted via: CDex 1.51
#
DISCID=c40f3a0d
DTITLE=Acoustic Blues Duo - God Moves On The Water
DYEAR=2002
DGENRE=Blues
TTITLE0=Gambler Blues Part I
TTITLE1=Delta Momma Blues
TTITLE2=Save me Jesus
TTITLE3=Le derviche tourneur
TTITLE4=God moves on the water
TTITLE5=Lord have mercy
TTITLE6=Some of these days
TTITLE7=Beyond the Blues
TTITLE8=First unto this country
TTITLE9=B+O moan
TTITLE10=Swanee river
TTITLE11=On our way
TTITLE12=Gambler Blues Part II
EXTD=YEAR: 2002
EXTT0=
EXTT1=
EXTT2=
EXTT3=
EXTT4=
EXTT5=
EXTT6=
EXTT7=
EXTT8=
EXTT9=
EXTT10=
EXTT11=
EXTT12=
PLAYORDER=
